<svg width="48" height="48" viewBox="0 0 48 48" fill="none" xmlns="http://www.w3.org/2000/svg">
<path fill-rule="evenodd" clip-rule="evenodd" d="M22.6977 5.09183C22.0124 5.15455 21.9098 5.17979 21.9469 5.27653C21.9801 5.36311 23.4393 7.48236 23.7206 7.85255C23.8206 7.98409 23.9303 8.09172 23.9644 8.09172C23.9986 8.09172 24.4271 7.5177 24.9167 6.81612C25.8346 5.50087 25.9923 5.25606 25.9496 5.21344C25.8372 5.10097 23.5376 5.01497 22.6977 5.09183ZM20.3288 5.48487C20.0783 5.54934 19.8453 5.61934 19.811 5.64055C19.7228 5.69503 19.7305 9.67341 19.819 9.77961C19.8528 9.82027 20.1078 9.8959 20.3855 9.94767L20.8905 10.0418L21.7675 9.60299C22.985 8.99389 23.3622 8.7704 23.3622 8.65798C23.3622 8.5579 21.6661 6.07952 21.1651 5.44751C21.0716 5.32957 20.9032 5.33706 20.3288 5.48487ZM26.764 5.38702C26.681 5.41142 24.5332 8.50364 24.4921 8.65793C24.4662 8.75509 24.7911 8.96104 25.7891 9.47995C26.1061 9.64477 26.4888 9.84546 26.6397 9.92604L26.914 10.0725L27.3307 9.97281C27.5598 9.91796 27.8131 9.87289 27.8935 9.87267L28.0397 9.87225V7.75209V5.63189L27.6278 5.52277C27.1531 5.39696 26.8775 5.3537 26.764 5.38702ZM18.472 6.06405C17.1062 6.58747 15.8266 7.30096 14.6096 8.21764C14.2358 8.49917 13.933 8.75344 13.9365 8.78267C13.9461 8.86054 14.3066 8.9848 15.6215 9.36371C16.2684 9.55011 17.1325 9.80289 17.5418 9.9254C18.3244 10.1597 18.4849 10.1706 18.8574 10.0144L19.0567 9.93082V7.90841C19.0567 6.32459 19.0423 5.88653 18.9902 5.88844C18.9537 5.88977 18.7205 5.9688 18.472 6.06405ZM28.7656 6.32342C28.7217 6.88633 28.7218 7.90107 28.7657 9.05799L28.8003 9.97111L29.1509 10.0568C29.561 10.157 29.4121 10.1893 32.0528 9.42728C33.7337 8.94228 33.9398 8.87468 33.9398 8.80829C33.9398 8.74526 33.6475 8.5022 33.0344 8.05542C32.0337 7.3262 30.8025 6.65077 29.6343 6.19017C28.7095 5.82557 28.8054 5.81084 28.7656 6.32342ZM34.1171 9.95681C33.8296 10.2665 33.577 10.5504 33.5558 10.5876C33.5339 10.6261 33.5569 10.6904 33.6089 10.7363C33.7442 10.8557 37.1888 12.594 37.2228 12.56C37.2644 12.5184 36.8128 11.8512 36.3031 11.201C35.8572 10.6322 34.8465 9.50934 34.7133 9.43482C34.6616 9.40586 34.4848 9.56063 34.1171 9.95681ZM12.8047 9.77924C11.9288 10.6819 10.511 12.5249 10.6554 12.5731C10.6853 12.583 11.4936 12.1908 12.4515 11.7015C14.3724 10.7202 14.3851 10.7132 14.366 10.6587C14.3251 10.5423 13.2806 9.44705 13.2105 9.44705C13.1645 9.44705 12.9819 9.59656 12.8047 9.77924ZM23.2293 9.58726C22.5586 9.92864 21.7675 10.3691 21.7675 10.4011C21.7675 10.4205 21.929 10.5542 22.1263 10.6981C22.3236 10.842 22.7303 11.1829 23.0299 11.4556L23.5748 11.9514V10.6992C23.5748 10.0105 23.5569 9.44816 23.5349 9.44955C23.513 9.45088 23.3754 9.51285 23.2293 9.58726ZM24.2658 10.7917V12.0833L24.8372 11.5209C25.1515 11.2116 25.5591 10.8449 25.7429 10.7061C25.9268 10.5673 26.0647 10.4332 26.0492 10.4083C26.0028 10.3331 24.4469 9.5002 24.3529 9.5002C24.2745 9.5002 24.2658 9.63036 24.2658 10.7917ZM14.6934 9.97105C14.7488 10.0483 15.1981 10.5286 15.692 11.0385L16.59 11.9656L17.1855 11.3903C17.513 11.0739 17.781 10.7987 17.781 10.7787C17.781 10.7108 16.8802 10.4332 15.3638 10.0338L14.5928 9.83074L14.6934 9.97105ZM32.7438 9.93109C32.0461 10.127 30.1926 10.6824 30.1468 10.7092C30.0911 10.742 31.2284 11.8919 31.3166 11.8919C31.4033 11.8919 33.3037 9.91812 33.2698 9.86327C33.2325 9.80289 33.1732 9.81054 32.7438 9.93109ZM19.2507 10.6093C19.1697 10.6412 19.445 10.9359 20.8111 12.2798C21.7234 13.1773 22.5095 13.9117 22.558 13.9117C22.6524 13.9117 23.3271 13.5339 23.4818 13.3944C23.5329 13.3483 23.5748 13.2403 23.5748 13.1545C23.5748 13.0266 23.4575 12.8788 22.9236 12.3337C22.5655 11.9681 22.117 11.5508 21.927 11.4063C21.4926 11.0759 20.8347 10.7514 20.3855 10.6459C20.0267 10.5617 19.4215 10.5422 19.2507 10.6093ZM27.4284 10.6627C26.5925 10.9036 26.0789 11.2477 25.0498 12.2563C24.3578 12.9344 24.2658 13.045 24.2658 13.1977C24.2658 13.362 24.2914 13.3843 24.7797 13.6453C25.1505 13.8434 25.3201 13.9076 25.3884 13.8759C25.4404 13.8517 26.2153 13.1168 27.1103 12.2427C28.2756 11.1046 28.7177 10.6409 28.6677 10.6091C28.547 10.5326 27.7621 10.5665 27.4284 10.6627ZM17.6747 11.8458C17.2508 12.2559 16.4671 12.9992 15.9332 13.4975C15.3993 13.9957 14.9492 14.4565 14.9329 14.5213C14.9166 14.5862 14.9109 14.7307 14.9202 14.8426L14.9373 15.0458L16.9134 14.0421L18.8896 13.0384L18.9238 12.6114C18.9426 12.3765 18.9503 11.9938 18.9409 11.761C18.9242 11.3463 18.9201 11.3352 18.7432 11.2162C18.6438 11.1494 18.5362 11.0959 18.504 11.0974C18.4718 11.099 18.0986 11.4357 17.6747 11.8458ZM29.1716 11.2056C29.078 11.2656 28.984 11.3668 28.9628 11.4306C28.9206 11.5574 28.9262 12.0768 28.9761 12.671L29.0081 13.0514L30.9383 14.013C31.9999 14.5419 32.8823 14.9747 32.8992 14.9747C32.9516 14.9747 32.9328 14.4417 32.8769 14.3371C32.8477 14.2826 32.3636 13.8118 31.8011 13.2909C31.2386 12.7699 30.4885 12.0627 30.1343 11.7192C29.7801 11.3758 29.4569 11.0951 29.4161 11.0956C29.3754 11.0961 29.2653 11.1456 29.1716 11.2056ZM14.0999 11.6245C13.6403 11.8622 13.1675 12.1117 13.0493 12.1789L12.8343 12.301L13.3276 12.7492C14.1934 13.5356 14.5336 13.8159 14.5969 13.7948C14.6308 13.7835 14.9768 13.4777 15.3657 13.1153C15.9234 12.5957 16.0626 12.4389 16.0238 12.3735C15.9967 12.3279 15.7408 12.0434 15.455 11.7414L14.9354 11.1922L14.0999 11.6245ZM32.3673 11.8212L31.8491 12.3882L32.5623 13.0642C33.2499 13.7161 33.2801 13.7378 33.4083 13.6707C33.6101 13.5651 34.9763 12.3704 34.9763 12.2995C34.9763 12.2355 33.0787 11.2541 32.955 11.2541C32.9167 11.2541 32.6523 11.5093 32.3673 11.8212ZM27.176 13.1354C26.5986 13.6962 26.1262 14.1829 26.1262 14.2171C26.1262 14.2732 27.2066 14.8244 28.6775 15.5185C30.3146 16.2911 31.778 16.9452 31.8372 16.9309C31.8741 16.922 32.1516 16.6809 32.4538 16.3951C32.9266 15.948 32.9925 15.8654 32.9267 15.8026C32.8846 15.7625 32.5392 15.586 32.1591 15.4104C31.7791 15.2349 30.919 14.8242 30.2478 14.4978C29.5766 14.1713 28.9008 13.8444 28.746 13.7711C28.5911 13.6979 28.441 13.5942 28.4124 13.5407C28.3837 13.4872 28.3336 13.1482 28.3009 12.7873C28.2683 12.4264 28.238 12.1277 28.2336 12.1235C28.2293 12.1194 27.7533 12.5747 27.176 13.1354ZM19.6227 12.4367C19.6042 12.5902 19.5888 12.8234 19.5884 12.955C19.588 13.0865 19.563 13.2828 19.5329 13.3913C19.4782 13.5881 19.4753 13.5898 17.1944 14.7191C15.9384 15.341 14.9107 15.8629 14.9107 15.879C14.9107 15.9195 15.901 16.791 16.0527 16.884C16.1965 16.9721 16.1426 16.9931 17.9139 16.1565C20.0189 15.1622 21.7675 14.2824 21.7692 14.2166C21.771 14.1505 19.7613 12.1577 19.6928 12.1577C19.6727 12.1577 19.6411 12.2833 19.6227 12.4367ZM34.8929 13.3314C34.471 13.6846 34.0233 14.0667 33.8981 14.1804L33.6702 14.3872L33.6855 14.9245L33.7006 15.4618L34.0068 15.6517C34.2845 15.8239 34.3265 15.8355 34.4586 15.7756C34.7006 15.6659 37.4532 13.5764 37.4091 13.5358C37.3242 13.4574 35.8037 12.6892 35.7335 12.6892C35.693 12.6892 35.3148 12.9782 34.8929 13.3314ZM11.1951 13.1349L10.4295 13.5218L11.3014 14.1796C11.7809 14.5413 12.4603 15.0594 12.8111 15.3308C13.1619 15.6021 13.4935 15.8244 13.5481 15.8246C13.7137 15.8254 14.155 15.5557 14.1877 15.4338C14.2045 15.3713 14.2186 15.1249 14.2189 14.8863L14.2197 14.4525L13.6483 13.9543C12.2617 12.7455 12.2576 12.7423 12.1071 12.7451C12.0265 12.7467 11.6161 12.922 11.1951 13.1349ZM9.52629 14.3763C8.97364 15.4497 8.10697 17.7918 8.10697 18.2118V18.3242L10.5122 18.3103L12.9174 18.2965L12.9319 17.3037L12.9463 16.311L12.5066 15.9709C11.9641 15.5513 10.4099 14.3788 10.0394 14.1095L9.76596 13.9108L9.52629 14.3763ZM37.5011 14.3947C37.1941 14.628 36.495 15.1588 35.9473 15.5743L34.9516 16.33L34.9507 17.3265L34.9497 18.3231H37.4014H39.8532L39.8188 18.1504C39.6789 17.4466 39.0053 15.6448 38.5082 14.6448C38.2339 14.0931 38.1536 13.9623 38.0926 13.9678C38.0742 13.9694 37.8081 14.1616 37.5011 14.3947ZM23.2957 14.3138C23.1568 14.3861 23.0432 14.467 23.0432 14.4936C23.0432 14.5203 23.1619 14.6693 23.307 14.8248L23.5707 15.1075L23.5728 14.6425C23.5739 14.3867 23.5688 14.1785 23.5615 14.1799C23.5542 14.1812 23.4346 14.2415 23.2957 14.3138ZM24.2658 14.6402V15.1031L24.5091 14.8661C24.8921 14.493 24.8957 14.4679 24.5876 14.3117C24.4418 14.2378 24.3097 14.1774 24.2941 14.1774C24.2785 14.1774 24.2658 14.3857 24.2658 14.6402ZM21.1041 15.4162L19.885 16.0171L20.3424 16.2934C21.0444 16.7174 21.1076 16.7373 21.3946 16.6241C22.2118 16.3018 23.2322 15.87 23.2731 15.829C23.317 15.7852 22.4401 14.8152 22.3567 14.8152C22.3383 14.8152 21.7746 15.0856 21.1041 15.4162ZM25.068 15.2803C24.8319 15.5361 24.6386 15.7736 24.6383 15.8082C24.6381 15.8428 24.6917 15.8875 24.7574 15.9076C24.8232 15.9277 25.3024 16.1206 25.8224 16.3364C26.3423 16.5521 26.8023 16.7286 26.8447 16.7286C26.9633 16.7286 28.0972 16.0736 28.0525 16.0309C28.0166 15.9965 25.5485 14.8152 25.5127 14.8152C25.5041 14.8152 25.304 15.0245 25.068 15.2803ZM13.9221 16.4047C13.8023 16.4591 13.6908 16.5387 13.6743 16.5817C13.6578 16.6247 13.6268 17.6423 13.6054 18.843L13.5665 21.026L13.7689 21.064C13.8827 21.0854 14.0081 21.079 14.0556 21.0493C14.1421 20.9953 15.5446 18.1367 15.6604 17.7785C15.7172 17.6026 15.7129 17.5661 15.6233 17.4669C15.4353 17.2584 14.2695 16.3034 14.2044 16.3046C14.169 16.3052 14.0419 16.3502 13.9221 16.4047ZM32.9299 16.9151C32.5644 17.2495 32.2578 17.5588 32.2486 17.6025C32.2308 17.686 32.7625 18.851 33.4508 20.2365C33.8713 21.0831 33.9142 21.1315 34.1832 21.064L34.3119 21.0317L34.3052 19.5578C34.3015 18.7472 34.2836 17.7374 34.2653 17.3138L34.2321 16.5436L33.9929 16.4267C33.8614 16.3623 33.7179 16.3091 33.674 16.3083C33.6302 16.3076 33.2953 16.5806 32.9299 16.9151ZM17.8348 16.9973C17.2651 17.2859 16.7938 17.5407 16.7875 17.5637C16.7678 17.6356 18.5089 20.949 18.5949 21.0032C18.6489 21.0373 18.7226 21.0335 18.8133 20.9921L18.9504 20.9297V18.6963C18.9504 17.4679 18.9325 16.4651 18.9105 16.4678C18.8886 16.4705 18.4045 16.7088 17.8348 16.9973ZM23.4685 16.5156C23.4246 16.5437 23.0699 16.702 22.6802 16.8674C22.1056 17.1112 21.985 17.1805 22.0423 17.2342C22.0812 17.2706 22.442 17.4806 22.8439 17.7008L23.5748 18.1012V17.2821C23.5748 16.8315 23.5688 16.4632 23.5615 16.4636C23.5542 16.4641 23.5123 16.4875 23.4685 16.5156ZM24.2658 17.3467V18.2259L24.6246 18.0289C25.3917 17.6076 26.0199 17.2384 26.0199 17.2085C26.0199 17.1757 24.8774 16.6806 24.4917 16.5462L24.2658 16.4676V17.3467ZM28.9965 18.7116C28.9965 21.0287 28.9935 20.9999 29.2344 21.042C29.3189 21.0567 29.3901 20.9663 29.5967 20.582C30.1156 19.617 31.1758 17.542 31.1758 17.4914C31.1758 17.4628 31.0059 17.373 30.7983 17.2919C30.5907 17.2109 30.1542 17.0175 29.8282 16.8623C29.5023 16.707 29.1818 16.564 29.1161 16.5444L28.9965 16.5088V18.7116ZM19.6414 18.5291C19.6414 19.4901 19.6555 20.3471 19.6728 20.4336L19.7043 20.5909L20.4037 20.3068C21.3618 19.9177 22.7939 19.1786 23.1761 18.876C23.2808 18.7931 23.2799 18.7898 23.1175 18.6563C23.0268 18.5818 22.7039 18.3849 22.3999 18.2189C22.096 18.0528 21.3799 17.6615 20.8087 17.3493C20.2376 17.0371 19.7413 16.7818 19.7058 16.7818C19.6566 16.7818 19.6414 17.1957 19.6414 18.5291ZM26.4717 17.7694C25.5069 18.3087 24.7103 18.7714 24.7014 18.7977C24.6577 18.9264 26.2867 19.8426 27.2216 20.2151C27.6093 20.3696 27.9987 20.5333 28.0869 20.5788C28.1749 20.6244 28.2602 20.6617 28.2762 20.6617C28.2923 20.6617 28.3055 19.7887 28.3055 18.7217C28.3055 17.6547 28.2876 16.7833 28.2656 16.7854C28.2437 16.7873 27.4364 17.2302 26.4717 17.7694ZM16.0354 18.646C15.9212 18.8923 15.5963 19.5807 15.3135 20.1758C15.0307 20.7708 14.8068 21.2803 14.816 21.3078C14.8252 21.3353 15.2509 21.5802 15.762 21.8519C16.5182 22.254 16.7112 22.3364 16.7976 22.2942C16.9389 22.2252 17.8069 21.5824 17.8836 21.4899C17.9305 21.4335 17.8801 21.2942 17.658 20.8667C17.5008 20.564 17.149 19.8857 16.8764 19.3595C16.6038 18.8333 16.3498 18.3568 16.312 18.3006C16.2494 18.2076 16.2244 18.2387 16.0354 18.646ZM31.5659 18.3795C31.2763 18.8637 30.0045 21.4129 30.0311 21.4558C30.0856 21.5441 31.1931 22.3094 31.2663 22.3094C31.4235 22.3094 33.1425 21.3825 33.1425 21.2977C33.1425 21.2533 32.7003 20.3135 31.9703 18.8061L31.6752 18.1968L31.5659 18.3795ZM7.8757 19.2916C7.85853 19.4167 7.82881 19.6912 7.80968 19.9017C7.77577 20.2739 7.77827 20.285 7.90105 20.3114C8.01002 20.3348 8.72627 20.423 9.18483 20.4694L9.33249 20.4843L9.31771 19.789L9.30293 19.0938L8.60492 19.079L7.9069 19.0642L7.8757 19.2916ZM10.0737 19.8379C10.0737 20.2617 10.0905 20.6086 10.1111 20.6086C10.1317 20.6086 10.7428 20.681 11.469 20.7697C12.1952 20.8582 12.8122 20.9166 12.8401 20.8994C12.8691 20.8815 12.8908 20.4816 12.8908 19.9676V19.0672H11.4822H10.0737V19.8379ZM35.0055 19.9717C34.9998 20.7797 35.0089 20.8799 35.0901 20.9111C35.1665 20.9404 37.8621 20.6386 37.9026 20.5962C37.9219 20.576 37.9392 19.9082 37.9322 19.4525L37.9263 19.0672H36.469H35.0117L35.0055 19.9717ZM38.6253 19.7538C38.6355 20.1314 38.6585 20.4548 38.6762 20.4726C38.694 20.4904 39.0229 20.4629 39.4071 20.4115L40.1056 20.3181L40.1052 19.9717C40.105 19.7812 40.0896 19.4997 40.0712 19.3462L40.0377 19.0672H39.3222H38.6067L38.6253 19.7538ZM23.7077 19.4113L23.495 19.5423L23.9193 19.5439L24.3436 19.5456L24.148 19.4127C24.0405 19.3396 23.9453 19.2799 23.9364 19.2801C23.9275 19.2802 23.8246 19.3393 23.7077 19.4113ZM23.3356 20.3473C22.26 20.4884 21.2739 20.9956 20.4885 21.8119C19.8362 22.4898 19.4389 23.2164 19.2139 24.143C19.1138 24.5551 19.1106 24.8354 19.1102 33.2184L19.1098 41.8686H23.9734H28.837L28.8352 33.3778C28.8332 24.3207 28.8388 24.53 28.5755 23.7544C28.1039 22.3654 27.0306 21.1955 25.7552 20.6804C25.0048 20.3773 24.0787 20.2499 23.3356 20.3473ZM8.47905 21.1723C8.47905 21.19 8.54661 21.2916 8.62921 21.3981C8.71176 21.5047 9.0495 21.9865 9.37963 22.4688C9.70983 22.9511 9.99803 23.3654 10.02 23.3895C10.0675 23.4412 10.896 23.0337 12.2448 22.2952C12.961 21.903 13.1985 21.7492 13.1392 21.716C13.0947 21.6912 12.5603 21.6106 11.9514 21.537C11.3426 21.4635 10.3544 21.344 9.75559 21.2717C8.59168 21.131 8.47905 21.1222 8.47905 21.1723ZM37.0759 21.4124C35.8919 21.5557 34.8812 21.6905 34.8299 21.7121C34.7593 21.7418 34.9071 21.8467 35.4412 22.1457C36.8735 22.9474 37.7677 23.4255 37.8328 23.4244C37.8696 23.4238 38.1509 23.0481 38.4579 22.5895C39.4264 21.1427 39.4284 21.1394 39.3229 21.146C39.271 21.1492 38.2599 21.2691 37.0759 21.4124ZM39.2912 22.5618C38.8033 23.2853 38.4042 23.905 38.4044 23.9389C38.4046 23.9727 38.626 24.2605 38.8964 24.5784C39.1668 24.8963 39.5555 25.3648 39.7601 25.6196C39.9648 25.8744 40.1501 26.083 40.1721 26.083C40.194 26.083 40.212 24.9948 40.212 23.6647C40.212 22.3346 40.2044 21.2464 40.1952 21.2464C40.1859 21.2464 39.7791 21.8383 39.2912 22.5618ZM7.71496 21.4656C7.6609 21.7358 7.67589 26.1362 7.73085 26.1362C7.79496 26.1362 9.45687 24.0377 9.48036 23.9272C9.49721 23.8478 9.22666 23.4306 8.18149 21.924C7.7569 21.312 7.74754 21.3028 7.71496 21.4656ZM19.4819 21.4499C19.2919 21.5311 18.9829 21.6876 18.7951 21.7976C18.3902 22.035 16.8236 23.1538 15.4828 24.163L15.0185 24.5125L15.3711 24.8327C15.5651 25.0088 15.7504 25.1688 15.783 25.1884C15.8357 25.2199 17.7339 23.7441 18.5312 23.0521C18.6953 22.9096 18.9882 22.5586 19.1821 22.2721C19.3759 21.9857 19.6215 21.6496 19.7278 21.5254C19.834 21.4012 19.8999 21.3001 19.8741 21.3009C19.8485 21.3017 19.6719 21.3688 19.4819 21.4499ZM28.0397 21.3742C28.0397 21.386 28.1274 21.4997 28.2346 21.6266C28.3418 21.7537 28.5651 22.066 28.7308 22.3207C28.9924 22.7231 29.1221 22.856 29.7185 23.3331C30.0961 23.6352 30.7844 24.1856 31.248 24.5563C31.9117 25.087 32.1094 25.2196 32.1782 25.1803C32.3241 25.0969 32.9583 24.5013 32.9299 24.4744C32.7026 24.2595 29.9853 22.3107 29.4034 21.9452C29.0073 21.6964 28.0397 21.2913 28.0397 21.3742ZM14.326 22.0991C14.326 22.1374 14.1944 22.571 14.0336 23.0628C13.8728 23.5547 13.7413 23.981 13.7413 24.0102C13.7413 24.0907 14.3325 24.0731 14.4963 23.9876C14.683 23.8903 16.0273 22.8863 16.0257 22.8455C16.025 22.8283 15.7258 22.6513 15.3608 22.4521C14.6939 22.0881 14.326 21.9627 14.326 22.0991ZM32.6774 22.4265C32.29 22.6308 31.9731 22.8181 31.9731 22.8428C31.9731 22.8676 32.2422 23.0873 32.5711 23.3311C33.5376 24.0474 33.4888 24.0203 33.8699 24.0509L34.2174 24.0788L34.1798 23.9075C34.1591 23.8133 34.0189 23.3614 33.8682 22.9033C33.6399 22.209 33.5766 22.069 33.488 22.0628C33.4295 22.0587 33.0648 22.2224 32.6774 22.4265ZM11.8809 23.2879L10.3129 24.1571L9.76202 24.8144C9.4591 25.1759 9.02069 25.6951 8.78782 25.9681C8.55495 26.2411 8.37332 26.4733 8.38417 26.4842C8.43434 26.5344 12.7817 24.3823 12.8833 24.2569C12.9467 24.1787 13.4835 22.5188 13.4638 22.4618C13.4556 22.4381 12.7433 22.8099 11.8809 23.2879ZM34.4863 22.4842C34.5007 22.5218 34.6013 22.8626 34.7097 23.2416C34.8182 23.6204 34.9389 24.0073 34.978 24.1013C35.0426 24.2568 35.2352 24.3652 37.1153 25.3054C38.2517 25.8738 39.2714 26.3763 39.3813 26.4222L39.5812 26.5057L39.4846 26.38C39.2406 26.0622 37.8178 24.3968 37.7061 24.2982C37.6372 24.2373 37.4852 24.1327 37.3682 24.0655C37.2513 23.9985 36.5638 23.5998 35.8406 23.1796C35.1174 22.7594 34.5109 22.4157 34.4928 22.4157C34.4747 22.4157 34.4718 22.4465 34.4863 22.4842ZM17.9326 24.4752C17.6582 24.7018 17.2254 25.0519 16.9709 25.2533C16.7164 25.4547 16.5216 25.6411 16.5379 25.6675C16.5541 25.6938 16.9573 25.976 17.4338 26.2945L18.3001 26.8735L18.328 25.6677C18.3434 25.0045 18.3795 24.3723 18.4084 24.2626C18.4372 24.153 18.4542 24.0633 18.4462 24.0633C18.4382 24.0633 18.2071 24.2486 17.9326 24.4752ZM29.5076 24.3689C29.5533 24.5631 29.5812 25.033 29.5841 25.6578C29.5866 26.1986 29.6056 26.6841 29.6263 26.7367C29.6591 26.8198 29.7683 26.7652 30.4598 26.3205C30.8975 26.039 31.2993 25.7662 31.3527 25.7143C31.4463 25.6234 31.4329 25.6068 30.9806 25.2561C30.7225 25.056 30.2796 24.7057 29.9964 24.4778C29.7131 24.2498 29.471 24.0633 29.4585 24.0633C29.4459 24.0633 29.468 24.2008 29.5076 24.3689ZM33.6701 24.842C33.5904 24.8559 33.369 25.0312 33.1401 25.2615C32.7969 25.607 32.757 25.6668 32.8252 25.7325C32.8682 25.7739 33.2808 26.0038 33.7423 26.2433L34.5812 26.6788L35.5229 26.4094C36.0409 26.2613 36.5603 26.1058 36.6772 26.064L36.8898 25.9878L35.7204 25.4149C34.6035 24.8677 34.5344 24.8415 34.179 24.8301C33.9743 24.8236 33.7454 24.8289 33.6701 24.842ZM12.2594 25.4094C11.6344 25.7068 11.1242 25.974 11.1256 26.0033C11.1283 26.0573 13.1538 26.6654 13.3359 26.6669C13.4882 26.6681 14.9267 25.9161 15.2197 25.6821C15.2288 25.6748 15.0494 25.4875 14.821 25.2659L14.4057 24.8629L13.9008 24.8658L13.3958 24.8688L12.2594 25.4094ZM14.9537 26.6857C14.4371 26.9827 13.947 27.2761 13.8646 27.3377L13.7147 27.4496L13.698 28.421C13.6844 29.2121 13.6944 29.3873 13.7519 29.3652C13.7908 29.3503 14.3091 29.1166 14.9038 28.846C16.112 28.2961 16.1041 28.2965 16.0595 28.7854C16.0283 29.1266 16.0306 29.1246 15.2296 29.4885C14.8934 29.6413 13.9059 30.1137 13.035 30.5384C11.7537 31.1634 11.4648 31.3234 11.5201 31.3778C11.5972 31.4534 12.7046 31.9607 12.8981 32.0089C12.996 32.0333 13.2405 31.9036 14.0071 31.4208C14.5479 31.0801 15.1937 30.6765 15.4422 30.5239C15.6907 30.3713 16.0141 30.172 16.1608 30.0811C16.3494 29.9642 16.591 29.7093 16.9847 29.2118C17.2911 28.8245 17.6913 28.3316 17.874 28.1163C18.0568 27.9009 18.2062 27.7165 18.2062 27.7063C18.2062 27.6912 16.1305 26.2869 15.9466 26.1776C15.9171 26.16 15.4703 26.3887 14.9537 26.6857ZM30.9599 26.8603C30.3917 27.2294 29.8866 27.5702 29.8377 27.6177C29.7549 27.6981 29.8042 27.7726 30.5445 28.6874C30.9822 29.2282 31.4169 29.7454 31.5105 29.8367C31.6586 29.9812 34.4115 31.7056 34.8828 31.949C35.0547 32.0379 35.0563 32.0375 35.7333 31.7351C36.7378 31.2864 36.7163 31.352 35.9795 30.983C35.6324 30.8091 34.9059 30.463 34.365 30.2138C31.8275 29.0449 31.9199 29.1027 31.9199 28.6857C31.9199 28.4963 31.9433 28.4093 32.0001 28.3875C32.0442 28.3706 32.5704 28.5845 33.1695 28.8628L34.2587 29.3688V28.3659V27.3631L34.0328 27.2354C33.0533 26.6818 32.1277 26.1893 32.0666 26.1893C32.0262 26.1893 31.5283 26.4913 30.9599 26.8603ZM9.92749 26.5885C9.81045 26.6719 9.8079 26.6959 9.8079 27.7107C9.8079 28.7119 9.81146 28.7466 9.91075 28.715C10.0818 28.6607 12.1906 27.4824 12.4839 27.2772C12.5908 27.2025 12.5461 27.1862 11.0534 26.7551C10.1748 26.5013 10.0714 26.486 9.92749 26.5885ZM37.2619 26.6361C36.3072 26.9054 35.4813 27.1662 35.4813 27.1981C35.4813 27.2497 38.0187 28.6874 38.1097 28.6874C38.1258 28.6874 38.139 28.2296 38.139 27.6701C38.139 26.3794 38.1453 26.3869 37.2619 26.6361ZM34.9783 28.7232C35.0012 29.3133 35.0377 29.693 35.0754 29.7299C35.1485 29.8018 37.2095 30.7345 37.3894 30.7773C37.4595 30.7939 37.582 30.7945 37.6616 30.7786C37.8051 30.7499 37.8065 30.7453 37.8314 30.2292C37.8688 29.4528 37.8576 29.4154 37.5358 29.2417C37.3851 29.1604 36.79 28.8241 36.2131 28.4944C35.6363 28.1647 35.1143 27.8682 35.053 27.8354L34.9417 27.7758L34.9783 28.7232ZM12.5719 28.0911C12.3526 28.2212 11.7009 28.5904 11.1235 28.9116L10.0737 29.4957V30.1296C10.0737 30.687 10.0849 30.767 10.1667 30.7923C10.2178 30.8081 10.3005 30.8428 10.3503 30.8693C10.4001 30.8958 10.4534 30.8971 10.4688 30.8723C10.4841 30.8474 10.5629 30.8137 10.644 30.7974C10.725 30.781 11.2677 30.5426 11.85 30.2676C12.6589 29.8856 12.9194 29.7387 12.9542 29.6446C12.9792 29.577 12.9931 29.1465 12.9851 28.6881L12.9706 27.8547L12.5719 28.0911ZM17.9405 29.2303C17.7504 29.4626 17.5512 29.7104 17.4976 29.781L17.4003 29.9095L17.8431 30.1238L18.286 30.3381L18.3015 29.9355C18.3101 29.7141 18.3101 29.3698 18.3015 29.1704L18.286 28.8079L17.9405 29.2303ZM29.6343 29.5264C29.6343 30.168 29.6465 30.2819 29.7154 30.2819C29.8114 30.2819 30.5379 29.9231 30.5379 29.8758C30.5379 29.8473 29.9035 29.0644 29.7057 28.8487C29.6456 28.7832 29.6343 28.8909 29.6343 29.5264ZM39.4217 30.3225C38.7417 30.5951 38.7403 30.611 39.3829 30.7787C39.5548 30.8236 39.7153 30.8801 39.7394 30.9042C39.7635 30.9284 39.4467 31.4978 39.0353 32.1696C38.6238 32.8415 38.266 33.4461 38.24 33.5133C38.1985 33.6207 38.3046 33.7723 39.1223 34.7722C39.6335 35.3975 40.0759 35.9239 40.1053 35.9421C40.1409 35.9642 40.1588 34.9905 40.1588 33.0222C40.1588 30.6923 40.1448 30.0704 40.0924 30.0747C40.0558 30.0778 39.754 30.1892 39.4217 30.3225ZM7.77678 33.0058C7.76306 34.5916 7.76753 35.9338 7.78666 35.9884C7.81484 36.0685 7.9195 35.9663 8.33064 35.4569C8.61066 35.11 9.04562 34.5753 9.29725 34.2686C9.54888 33.9619 9.75474 33.665 9.75474 33.6087C9.75474 33.5523 9.5847 33.2456 9.37692 32.9269C8.83252 32.092 8.15401 30.9612 8.18117 30.9341C8.19398 30.9213 8.41159 30.8469 8.66477 30.769C8.91794 30.691 9.12306 30.6034 9.12067 30.5741C9.11764 30.537 8.09177 30.185 7.80819 30.1238C7.80463 30.123 7.79054 31.42 7.77678 33.0058ZM15.9985 31.0763C15.5318 31.3672 14.8389 31.8048 14.4589 32.0489L13.7679 32.4927L13.7687 33.1377C13.7692 33.4924 13.7862 33.7992 13.8063 33.8194C13.8474 33.8604 14.9337 33.2754 15.8674 32.7093C16.5865 32.2735 18.1531 31.1957 18.1531 31.1369C18.1531 31.1145 18.0873 31.0651 18.0069 31.0271C17.6616 30.8641 16.922 30.5476 16.8862 30.5476C16.8648 30.5476 16.4653 30.7856 15.9985 31.0763ZM30.4128 30.8272C29.8681 31.0901 29.8412 31.1105 29.9344 31.1908C30.054 31.2942 31.3443 32.085 32.6109 32.8312C33.1225 33.1326 33.6758 33.4596 33.8404 33.5579C34.0051 33.6562 34.1673 33.7366 34.2009 33.7366C34.2444 33.7366 34.2578 33.5569 34.2471 33.1144L34.2321 32.4922L32.9033 31.6498C31.6462 30.853 31.126 30.5469 31.0314 30.5482C31.0085 30.5485 30.7301 30.6741 30.4128 30.8272ZM9.2232 31.3222C9.2232 31.339 9.41089 31.644 9.64036 31.9999C9.86977 32.3558 10.1232 32.7607 10.2035 32.8995C10.2838 33.0383 10.3856 33.152 10.4297 33.152C10.5362 33.152 12.0935 32.5054 12.0935 32.4612C12.0935 32.4422 11.944 32.3639 11.7613 32.287C11.5786 32.2102 11.166 32.0367 10.8444 31.9014C10.1925 31.6272 9.3243 31.2927 9.26307 31.2921C9.24117 31.2919 9.2232 31.3054 9.2232 31.3222ZM37.9811 31.5353C37.1303 31.871 35.9063 32.413 35.9074 32.4537C35.9085 32.4916 37.4441 33.1525 37.5277 33.1511C37.5795 33.1502 38.6269 31.4946 38.6611 31.3595C38.6859 31.2617 38.6539 31.27 37.9811 31.5353ZM29.6461 32.6818L29.6609 33.4422L30.6708 34.0967C32.0494 34.99 32.6 35.3311 32.6635 35.3311C32.6972 35.3311 32.7172 35.0548 32.7172 34.5929C32.7172 33.9656 32.7033 33.8388 32.6242 33.7487C32.5573 33.6725 30.2133 32.2392 29.6727 31.944C29.6499 31.9316 29.638 32.2636 29.6461 32.6818ZM18.096 32.1097C17.988 32.2116 16.894 32.9292 15.5884 33.7547L15.2828 33.9479V34.7254V35.5028L15.4138 35.4169C15.4858 35.3698 15.7549 35.2033 16.0118 35.0471C17.252 34.2928 18.0845 33.7663 18.1929 33.6675C18.3063 33.5643 18.3125 33.519 18.3125 32.8004C18.3125 32.3833 18.2929 32.0299 18.2688 32.015C18.2447 32.0002 18.167 32.0428 18.096 32.1097ZM34.9804 32.9264C34.9635 32.9433 34.9497 33.2016 34.9497 33.5004C34.9497 33.9398 34.9675 34.0652 35.0427 34.1558C35.1791 34.32 38.9688 36.3244 39.4559 36.4898C39.6235 36.5468 39.6273 36.5451 39.5562 36.4436C39.397 36.2163 37.6626 34.1287 37.5456 34.0235C37.4773 33.9621 36.9789 33.726 36.438 33.4989C35.8972 33.2718 35.3549 33.0432 35.2329 32.9909C35.1108 32.9386 34.9972 32.9096 34.9804 32.9264ZM12.7048 33.0419C12.5586 33.0941 11.9996 33.3229 11.4626 33.5504L10.4862 33.9641L9.49625 35.1592C8.2296 36.6884 8.30789 36.5718 8.6232 36.4586C8.86654 36.3713 11.2871 35.1703 12.4789 34.5455L13.0503 34.246V33.5927C13.0503 33.2333 13.0324 32.9411 13.0104 32.9432C12.9885 32.9454 12.851 32.9898 12.7048 33.0419ZM33.3896 34.7015C33.3376 35.4348 33.3482 36.9537 33.4064 37.1069C33.4577 37.2416 33.4586 37.2419 33.9554 37.2092C34.2291 37.1913 34.5647 37.1933 34.7013 37.2138L34.9497 37.251V37.8658V38.4806L35.1756 38.4468C35.2998 38.4282 35.856 38.3244 36.4114 38.2161L37.4214 38.0194L37.9795 37.455L38.5376 36.8906L37.611 36.4165C37.1013 36.1557 35.9712 35.5537 35.0996 35.0786C34.2279 34.6036 33.4944 34.215 33.4695 34.215C33.4446 34.215 33.4086 34.4339 33.3896 34.7015ZM13.4224 34.8854C12.8523 35.1913 11.7227 35.7753 10.9123 36.1831L9.43864 36.9245L9.74416 37.2307C9.91218 37.3991 10.1463 37.6471 10.2645 37.782C10.4617 38.0069 10.5052 38.0301 10.7948 38.0643C10.9682 38.0848 11.4955 38.1718 11.9664 38.2577C12.4374 38.3435 12.8739 38.4138 12.9365 38.4138C13.0455 38.4138 13.0503 38.3905 13.0503 37.8631V37.3125L13.3293 37.279C13.4828 37.2605 13.8297 37.2452 14.1001 37.245L14.5918 37.2445V35.7829C14.5918 34.6469 14.577 34.3222 14.5253 34.3252C14.4888 34.3275 13.9924 34.5795 13.4224 34.8854ZM29.6343 35.764V37.1536L29.94 36.87C30.3965 36.4464 31.3884 35.4856 31.3884 35.467C31.3884 35.4332 29.7103 34.3744 29.6567 34.3744C29.6444 34.3744 29.6343 34.9997 29.6343 35.764ZM17.4645 35.0229L16.6475 35.512L17.4402 36.2701C17.8761 36.6871 18.2507 37.029 18.2727 37.0301C18.2946 37.0311 18.3125 36.4699 18.3125 35.7829C18.3125 35.0959 18.3055 34.5339 18.297 34.5339C18.2884 34.5339 17.9138 34.754 17.4645 35.0229ZM31.1226 36.6905C30.6403 37.1449 30.1271 37.6339 29.9823 37.7773L29.719 38.0381L30.027 38.4916C30.1965 38.741 30.3524 38.9558 30.3736 38.9689C30.4375 39.0084 32.5792 37.5741 32.65 37.4445C32.7176 37.3207 32.7416 36.5172 32.6842 36.303C32.6566 36.1998 32.1601 35.861 32.0403 35.8635C32.018 35.8639 31.605 36.2361 31.1226 36.6905ZM15.6466 36.1441L15.3093 36.3748L15.2942 36.9143C15.2799 37.4229 15.2858 37.4578 15.3964 37.522C15.7189 37.7089 17.4017 38.8375 17.4327 38.8876C17.4523 38.9193 17.5005 38.9453 17.54 38.9453C17.6247 38.9453 18.2273 38.0774 18.199 37.9959C18.1884 37.9652 17.9473 37.7297 17.6633 37.4726C17.3793 37.2156 16.8853 36.7597 16.5655 36.4594L15.984 35.9134L15.6466 36.1441ZM37.881 38.6452L36.481 40.0458L36.9246 40.3218C37.5306 40.6988 39.952 41.8686 40.1264 41.8686C40.1831 41.8686 40.1631 37.6707 40.1059 37.5638C40.0531 37.4652 39.5461 37.2445 39.3724 37.2445C39.3222 37.2445 38.651 37.8748 37.881 38.6452ZM8.14917 37.3973C8.01161 37.4448 7.87378 37.5091 7.84295 37.5401C7.80495 37.5783 7.79134 38.2925 7.80075 39.7511L7.81462 41.9056L8.58536 41.5786C10.0563 40.9545 11.4557 40.2183 11.4557 40.0684C11.4557 40.0426 10.8246 39.4087 10.0534 38.6596C8.53401 37.184 8.61385 37.2369 8.14917 37.3973ZM13.7519 38.2586C13.7655 38.4475 13.8046 38.5998 13.8459 38.6254C13.8848 38.6494 14.1701 38.7221 14.4801 38.787C14.79 38.8518 15.0817 38.9248 15.1283 38.9491C15.2014 38.9872 15.2173 39.1873 15.2437 40.4027C15.2606 41.1779 15.2897 41.8368 15.3083 41.8669C15.3614 41.9528 17.9406 41.9413 17.9401 41.8553C17.94 41.8188 17.6649 41.4686 17.3289 41.0772C16.9057 40.5843 16.7179 40.3251 16.7179 40.2339C16.7179 40.1615 16.8016 39.9882 16.9039 39.8489C17.0063 39.7095 17.09 39.5823 17.09 39.5662C17.09 39.5278 16.4601 39.0968 15.464 38.4535L14.6619 37.9355H14.1952H13.7285L13.7519 38.2586ZM33.2699 38.0027C33.2085 38.0388 32.6528 38.4046 32.035 38.8155L30.9118 39.5626L31.1043 39.8704C31.2905 40.1681 31.2942 40.1837 31.2168 40.3457C31.1728 40.4379 30.8915 40.8073 30.5917 41.1667C30.2919 41.5261 30.0566 41.8302 30.0689 41.8424C30.106 41.8796 32.6546 41.8807 32.7146 41.8436C32.7513 41.8209 32.7704 41.3209 32.7704 40.3808C32.7704 39.0669 32.7778 38.9502 32.8634 38.9237C32.9146 38.9078 33.2196 38.8447 33.5411 38.7834C33.8627 38.722 34.1409 38.6556 34.1593 38.6358C34.1776 38.616 34.2087 38.4504 34.2283 38.2677L34.264 37.9355L33.8229 37.9363C33.5699 37.9367 33.334 37.965 33.2699 38.0027ZM11.694 39.2164C11.8982 39.4327 12.5765 40.1341 13.2013 40.7751C14.1442 41.7424 14.3522 41.9312 14.4247 41.8855C14.5005 41.8378 14.5139 41.6805 14.5264 40.6972C14.5343 40.074 14.5219 39.5452 14.4989 39.5222C14.4758 39.4991 13.8116 39.348 13.0228 39.1862C12.2339 39.0246 11.5288 38.8767 11.4557 38.8577C11.3498 38.8301 11.3983 38.9031 11.694 39.2164ZM36.3849 38.9433C36.2826 38.9647 35.6623 39.0838 35.0065 39.2079C34.3507 39.3321 33.761 39.4539 33.696 39.4786C33.591 39.5185 33.5735 39.575 33.5394 39.9846C33.5183 40.2382 33.5219 40.7838 33.5476 41.197L33.5943 41.9483L33.8463 41.7161C34.0965 41.4855 36.6274 38.8866 36.5903 38.8983C36.5796 38.9016 36.4872 38.9219 36.3849 38.9433ZM17.9235 39.747L17.5611 40.2282L17.7737 40.5036C17.8906 40.6551 18.0597 40.8493 18.1494 40.9351L18.3125 41.0912V40.1777C18.3125 39.6753 18.3065 39.2645 18.2992 39.265C18.292 39.2654 18.1229 39.4823 17.9235 39.747ZM29.638 40.1943L29.6387 41.151L29.8276 40.9384C29.9315 40.8215 30.11 40.6148 30.2243 40.479L30.4322 40.2321L30.1937 39.9209C30.0625 39.7497 29.8837 39.526 29.7962 39.4237L29.6372 39.2376L29.638 40.1943ZM35.2819 41.2537C34.9531 41.5843 34.6839 41.8698 34.6839 41.8882C34.6839 41.9336 38.0055 41.9312 38.0509 41.8858C38.1038 41.8328 36.017 40.6322 35.9019 40.6494C35.8898 40.6512 35.6108 40.9231 35.2819 41.2537ZM11.4279 41.0266C11.107 41.2067 10.677 41.4471 10.4723 41.5608C9.80869 41.9298 9.76755 41.915 11.4723 41.9201C12.3092 41.9225 13.0562 41.9089 13.1324 41.8898C13.2656 41.8563 13.2488 41.8328 12.6955 41.2779C12.3791 40.9605 12.0956 40.7005 12.0657 40.7001C12.0358 40.6996 11.7488 40.8466 11.4279 41.0266ZM5.37523 42.431C5.32207 42.5696 5.33866 42.7997 5.40675 42.8678C5.49971 42.9607 42.5003 42.9607 42.5933 42.8678C42.6613 42.7997 42.6779 42.5696 42.6248 42.431C42.5954 42.3546 40.9049 42.3469 24 42.3469C7.09508 42.3469 5.40457 42.3546 5.37523 42.431Z" fill="#2196F3"/>
</svg>
